<svg width="30" height="30" viewBox="0 0 15 15" fill="none" xmlns="http://www.w3.org/2000/svg">
<path d="M0.954532 13.8775L3.1818 13.8775L3.1818 8.08209L-1.33514e-05 5.52527L-1.33536e-05 12.8548C-1.33537e-05 13.4199 0.427146 13.8775 0.954532 13.8775Z" fill="#4285F4"/>
<path d="M10.8182 13.8776L13.0454 13.8776C13.5728 13.8776 14 13.4199 14 12.8549L14 5.52533L10.8182 8.08215L10.8182 13.8776Z" fill="#34A853"/>
<path d="M10.8182 3.6503L10.8182 8.08212L14 5.5253L14 4.16166C14 2.89774 12.6533 2.17587 11.7091 2.93439L10.8182 3.6503Z" fill="#FBBC04"/>
<path fill-rule="evenodd" clip-rule="evenodd" d="M3.1818 8.08215L3.1818 3.65033L6.99998 6.71851L10.8182 3.65033L10.8182 8.08215L6.99998 11.1503L3.1818 8.08215Z" fill="#EA4335"/>
<path d="M-1.33519e-05 4.16166L-1.33523e-05 5.5253L3.1818 8.08212L3.1818 3.6503L2.2909 2.93439C1.34669 2.17587 -1.33515e-05 2.89774 -1.33519e-05 4.16166Z" fill="#C5221F"/>
</svg>
