<svg width="30" height="32" viewBox="0 0 15 16" fill="none" xmlns="http://www.w3.org/2000/svg">
<path d="M7.49999 15.6248C11.6421 15.6248 15 12.267 15 8.12482C15 3.98268 11.6421 0.624817 7.49999 0.624817C3.35785 0.624817 -1.33164e-05 3.98268 -1.32732e-05 8.12482C-1.323e-05 12.267 3.35785 15.6248 7.49999 15.6248Z" fill="#34A4C6"/>
<path d="M7.64397 12.5422C8.34156 12.5422 11.1062 9.40681 11.1062 7.30471C11.1062 5.29253 9.53389 3.62482 7.64397 3.62482C5.65506 3.62482 4.08286 5.29253 4.08286 7.30471C4.08286 9.40681 6.84747 12.5422 7.64397 12.5422Z" fill="white"/>
<path d="M7.65508 9.21706C8.77448 9.21706 9.73154 8.26977 9.73154 7.16158C9.73154 5.93248 8.77448 4.98511 7.65508 4.98511C6.41342 4.98511 5.45645 5.93248 5.45645 7.16158C5.45645 8.26977 6.41342 9.21706 7.65508 9.21706Z" fill="#FFB2A8"/>
<path d="M6.75967 6.64765C7.22342 6.64765 7.59939 6.2755 7.59939 5.81642C7.59939 5.35725 7.22342 4.98511 6.75967 4.98511C6.29591 4.98511 5.91995 5.35725 5.91995 5.81642C5.91995 6.2755 6.29591 6.64765 6.75967 6.64765Z" fill="white"/>
</svg>
